# xmcd
#
# Track frame offsets: 
#        150
#        12462
#        25397
#        37632
#        49127
#        59445
#        67820
#        80412
#        92770
#        101380
#        114770
#        126902
#        139762
#        154075
#        168105
#
# Disc length: 2385 seconds
#
# Revision: 0
# Processed by: cddbd v1.5.2PL0 Copyright (c) Steve Scherf et al.
# Submitted via: ExactAudioCopy v0.95a5
#
DISCID=b3094f0f
DTITLE=Gemischt - Country Golden Hits CD2
DYEAR=1993
DGENRE=Country
TTITLE0=Track01    I walk the line - Johnny Cash
TTITLE1=Track02    Ruby don't take your love to town - Kenny Rogers
TTITLE2=Track03    Stand by your man - Lynn Anderson
TTITLE3=Track04    Your cheatin' heart - Jerry Lee Lewis
TTITLE4=Track05    Chains of  love - The Miller Siisters 
TTITLE5=Track06    Crazy fool - Carl Man
TTITLE6=Track07    Just a closer walk with thee - Patsy Cline
TTITLE7=Track08    Good enough to bi your wife - Jeannie C. Reley
TTITLE8=Track09    It's been so long - Webb Pierce
TTITLE9=Track10    Tennessee waltz - Patti Page
TTITLE10=Track11    Tryin' to get you - Roy Orbison
TTITLE11=Track12    What'cha doin when you're cryin - Carl Perkins
TTITLE12=Track13    Black jack david - Warren Smith
TTITLE13=Track14    The that's what i tell my heart - Luke Mcdaniel 
TTITLE14=Track15    King of the road - Roger Miller
EXTD=
EXTT0=
EXTT1=
EXTT2=
EXTT3=
EXTT4=
EXTT5=
EXTT6=
EXTT7=
EXTT8=
EXTT9=
EXTT10=
EXTT11=
EXTT12=
EXTT13=
EXTT14=
PLAYORDER=
